<svg width="1435" height="982" viewBox="0 0 1435 982" fill="none" xmlns="http://www.w3.org/2000/svg">
<path d="M1009.52 83.3156C1012.21 74.9007 1025.48 78.7473 1022.76 87.2119C1017.08 104.993 1007.03 120.52 1000.26 137.781C997.034 146.016 985.082 138.726 988.266 130.59C994.604 114.447 1004.19 99.9269 1009.52 83.3156Z" fill="#D0D175" fill-opacity="0.21"/>
<path d="M1099.93 226.806C1108.12 223.894 1111.78 237.512 1103.64 240.415C1094.51 243.658 1085.02 245.94 1075.87 249.19C1067.68 252.102 1064.02 238.484 1072.16 235.581C1081.3 232.338 1090.78 230.056 1099.93 226.806Z" fill="#D0D175" fill-opacity="0.21"/>
<path d="M1319.79 690.862C1343.16 703.737 1360.74 727.63 1371.82 751.847C1382.64 775.448 1390.95 806.544 1375 828.749C1369.94 835.768 1357.9 828.656 1363 821.558C1377.72 801.08 1367.39 771.263 1356.12 750.515C1349.64 738.555 1341.93 727.077 1332.4 717.371C1323.44 708.227 1313.24 702.231 1301.71 697.11C1278.36 686.748 1253.74 682.035 1228.98 681.561C1229.46 677.002 1229.75 672.401 1229.82 667.789C1260.75 668.405 1291.48 675.268 1319.79 690.862Z" fill="#D0D175" fill-opacity="0.21"/>
<path d="M1339.85 746.225C1356.86 768.992 1367.83 800.462 1350.29 824.868C1345.23 831.887 1333.2 824.775 1338.29 817.677C1362 784.716 1323.74 739.645 1294.83 723.295C1272.59 710.709 1248.47 706.31 1224.36 707.035C1225.59 702.223 1226.65 697.369 1227.46 692.491C1240.92 692.451 1254.39 693.998 1267.77 697.562C1296.5 705.201 1321.59 721.781 1339.85 746.225Z" fill="#D0D175" fill-opacity="0.21"/>
<path d="M1101.4 474.476C1151.74 510.031 1201.46 558.193 1222.03 618.214C1227.76 634.938 1230.1 651.499 1229.82 667.789C1225.44 667.687 1221.06 667.73 1216.68 667.899C1216.88 636.503 1205.43 606.8 1188.06 580.246C1163.32 542.395 1130.55 511.627 1094.11 485.944C1096.82 482.326 1099.27 478.481 1101.4 474.476Z" fill="#D0D175" fill-opacity="0.21"/>
<path d="M1016.65 320.453C1038.84 322.451 1061.23 335.059 1067.9 357.336C1068.83 360.481 1069.51 363.65 1069.89 366.837C1069.85 366.79 1069.8 366.729 1069.75 366.682C1064.84 361.351 1057.9 366.449 1058.39 372.139L1056.75 372.121C1056.67 370.55 1056.55 368.989 1056.34 367.424C1054.77 355.483 1046.93 346.252 1036.74 340.485C1035.56 337.518 1034.05 334.654 1032.16 331.931C1027.87 325.697 1022.54 322.082 1016.65 320.453Z" fill="#D0D175" fill-opacity="0.21"/>
<path d="M1069.75 366.682C1069.8 366.729 1069.85 366.79 1069.89 366.837C1070.74 373.334 1070.54 379.894 1069.54 386.402C1066.46 382.989 1063.35 379.667 1060.38 376.431C1059.13 375.068 1058.51 373.589 1058.39 372.138C1057.9 366.448 1064.84 361.351 1069.75 366.682Z" fill="#D0D175" fill-opacity="0.21"/>
<path d="M1034.41 434.089C1045.42 416.518 1057.74 394.397 1056.75 372.121L1058.39 372.139C1058.51 373.589 1059.13 375.068 1060.38 376.431C1063.35 379.668 1066.46 382.989 1069.54 386.403C1066.72 405.051 1057.54 423.203 1048.4 438.038C1040.41 451.018 1031.38 463.385 1021.31 474.714C1013.79 483.19 1005.37 492.97 995.464 498.89C990.233 496.176 985.251 493.264 979.232 491.82C978.548 491.653 977.906 491.588 977.29 491.599C981.745 490.424 986.097 488.383 990.174 485.358C1007.86 472.226 1022.69 452.774 1034.41 434.089Z" fill="#D0D175" fill-opacity="0.21"/>
<path d="M1178.3 582.435C1196.89 607.61 1207.35 637.666 1205.92 668.506C1201.25 668.861 1196.57 669.348 1191.93 669.959C1193.26 644.366 1187.07 619.145 1171.93 596.672C1159.69 578.497 1144.03 561.935 1128.76 546.36C1113.04 530.323 1096.22 515.715 1077.97 502.865C1081.53 499.867 1084.85 496.642 1087.92 493.309C1121.88 517.741 1153.28 548.592 1178.3 582.435Z" fill="#D0D175" fill-opacity="0.21"/>
<path d="M1032.16 331.931C1034.05 334.654 1035.56 337.518 1036.74 340.485C1028.83 335.999 1019.51 333.595 1010.61 333.632C1005.4 332.923 999.482 334.414 993.747 336.963C993.741 336.984 993.741 336.984 993.734 336.97C986.493 338.229 980.732 327.383 988.219 324.276C996.679 320.789 1006.64 319.539 1016.65 320.453C1022.54 322.082 1027.87 325.697 1032.16 331.931Z" fill="#D0D175" fill-opacity="0.21"/>
<path d="M1229.82 667.789C1229.75 672.401 1229.46 677.002 1228.98 681.561C1224.6 681.472 1220.22 681.516 1215.84 681.685C1216.2 678.739 1216.44 675.77 1216.56 672.778C1216.64 671.153 1216.67 669.522 1216.68 667.899C1221.06 667.73 1225.44 667.686 1229.82 667.789Z" fill="#D0D175" fill-opacity="0.21"/>
<path d="M1228.98 681.561C1228.6 685.211 1228.09 688.858 1227.46 692.49C1222.99 692.51 1218.53 692.689 1214.08 693.049C1214.82 689.301 1215.42 685.503 1215.84 681.685C1220.22 681.516 1224.6 681.472 1228.98 681.561Z" fill="#D0D175" fill-opacity="0.21"/>
<path d="M873.608 91.3395C879.187 101.002 884.631 110.671 888.763 121.06C892.117 129.504 878.962 132.671 875.626 124.29C871.986 115.141 866.862 106.595 861.943 98.0748C857.385 90.1811 869.051 83.4458 873.608 91.3395Z" fill="#D0D175" fill-opacity="0.21"/>
<path d="M1097.29 471.619C1093.7 469.138 1090.32 470.653 1088.64 473.478L1086.58 472.07C1093.27 461.566 1097.54 449.321 1096.62 436.352C1095.24 416.842 1082.56 400.786 1069.54 386.402C1070.54 379.894 1070.74 373.334 1069.89 366.837C1087.88 386.41 1109.2 408.67 1110.28 436.722C1110.79 450.125 1107.42 463.03 1101.4 474.476C1100.03 473.521 1098.66 472.574 1097.29 471.619Z" fill="#D0D175" fill-opacity="0.21"/>
<path d="M1205.92 668.506C1205.82 670.557 1205.68 672.603 1205.48 674.658C1205.22 677.258 1204.91 679.847 1204.54 682.403C1199.84 682.815 1195.13 683.352 1190.45 684.042C1191.2 679.347 1191.69 674.655 1191.93 669.959C1196.57 669.348 1201.25 668.861 1205.92 668.506Z" fill="#D0D175" fill-opacity="0.21"/>
<path d="M1227.46 692.491C1226.65 697.369 1225.59 702.223 1224.36 707.035C1219.69 707.174 1215.01 707.515 1210.35 708.03C1211.8 703.09 1213.07 698.11 1214.08 693.049C1218.53 692.689 1222.99 692.51 1227.46 692.491Z" fill="#D0D175" fill-opacity="0.21"/>
<path d="M1101.4 474.476C1099.27 478.481 1096.82 482.326 1094.11 485.944C1093 485.167 1091.89 484.39 1090.78 483.62C1086.95 480.968 1086.84 476.495 1088.64 473.478C1090.32 470.653 1093.7 469.138 1097.29 471.619C1098.66 472.574 1100.03 473.521 1101.4 474.476Z" fill="#D0D175" fill-opacity="0.21"/>
<path d="M1190.45 684.042C1195.13 683.352 1199.84 682.815 1204.54 682.403C1203.96 686.423 1203.24 690.393 1202.4 694.312C1197.53 694.981 1192.67 695.824 1187.85 696.833C1188.27 695.082 1188.67 693.325 1189.06 691.562C1189.6 689.054 1190.05 686.557 1190.45 684.042Z" fill="#D0D175" fill-opacity="0.21"/>
<path d="M1010.61 333.632C1005.2 333.669 999.95 334.597 995.291 336.525C994.772 336.734 994.256 336.887 993.747 336.963C999.482 334.414 1005.4 332.923 1010.61 333.632Z" fill="#D0D175" fill-opacity="0.21"/>
<path d="M1210.35 708.03C1215.01 707.515 1219.69 707.174 1224.36 707.035C1220.68 721.644 1215.32 735.974 1208.88 749.942C1180.14 812.355 1149.11 881.698 1087.97 916.581C1054.98 935.411 1013.24 948.187 974.311 942.823C947.044 939.059 916.385 926.727 901.931 900.376C888.442 875.755 895.198 848.482 909.304 826.964C925.859 801.727 949.706 782.533 974.444 766.2C997.799 750.793 1022.55 737.864 1047.26 724.812C1070.97 712.287 1093.72 698.679 1118.87 688.965C1141.93 680.08 1166.69 673.264 1191.93 669.959C1191.69 674.655 1191.2 679.347 1190.45 684.042C1158.88 688.604 1128.05 698.964 1100.38 712.219C1078.51 722.686 1057.56 735.274 1036.12 746.649C1009.96 760.54 983.651 775.112 960.352 793.608C938.946 810.594 916.152 832.21 909.481 860.469C903.134 887.342 920.792 909.485 944.507 920.417C979.839 936.711 1020.69 929.931 1054.68 916.84C1089.56 903.413 1118.7 879.529 1140.22 848.725C1160.27 819.998 1174.91 787.792 1190.43 756.274C1198.01 740.902 1205.36 724.808 1210.35 708.03Z" fill="#D0D175" fill-opacity="0.21"/>
<path d="M1082.6 489.54C1084.38 490.777 1086.16 492.022 1087.92 493.309C1084.85 496.642 1081.53 499.867 1077.97 502.865C1077.35 502.423 1076.73 501.981 1076.1 501.547C1068.69 496.407 1075.17 484.393 1082.6 489.54Z" fill="#D0D175" fill-opacity="0.21"/>
<path d="M1202.4 694.312C1201.27 699.517 1199.94 704.639 1198.42 709.693C1193.31 710.539 1188.23 711.599 1183.21 712.81C1184.98 707.545 1186.53 702.219 1187.85 696.833C1192.67 695.824 1197.53 694.981 1202.4 694.312Z" fill="#D0D175" fill-opacity="0.21"/>
<path d="M1031.92 508.217C1050.08 507.334 1066.77 496.045 1078.5 482.776C1081.43 479.47 1084.17 475.892 1086.58 472.07L1088.64 473.478C1086.84 476.495 1086.95 480.968 1090.78 483.62C1091.89 484.39 1093 485.167 1094.11 485.944C1092.69 487.811 1091.22 489.625 1089.68 491.365C1089.11 492.021 1088.52 492.672 1087.92 493.309C1086.16 492.022 1084.38 490.777 1082.6 489.54C1075.17 484.394 1068.69 496.407 1076.1 501.547C1076.73 501.981 1077.35 502.423 1077.97 502.865C1066.09 512.937 1051.76 520.573 1036.32 521.917C1025.26 522.863 1013.9 520.98 1003.28 517.076C994.397 513.805 986.345 508.092 977.344 505.613C982.543 504.68 987.708 502.969 992.718 500.421C993.636 499.945 994.551 499.435 995.464 498.89C997.675 500.026 999.931 501.12 1002.34 502.053C1011.83 505.752 1021.82 508.713 1031.92 508.217Z" fill="#D0D175" fill-opacity="0.21"/>
<path d="M1198.42 709.693C1192.16 730.415 1182.86 750.034 1172.85 769.187C1153.02 807.109 1131.66 846.513 1099.93 875.236C1069.14 903.099 1027.95 920.385 985.3 916.445C969.104 914.945 950.57 910.802 938.082 898.722C924.626 885.713 923.56 868.599 929.597 852.175C941.29 820.491 973.714 800.647 1000.95 784.652C1027.94 768.813 1054.94 752.716 1082.65 738.172C1114.58 721.403 1150.62 704.532 1187.85 696.833C1186.53 702.219 1184.98 707.545 1183.21 712.81C1178.05 714.048 1172.94 715.458 1167.9 717.005C1136.45 726.652 1106.78 740.934 1078.06 756.682C1050.17 771.965 1022.07 787.625 995.228 804.684C980.683 813.916 966.145 823.997 954.849 837.27C945.517 848.228 932.832 868.255 942.64 883.297C952.233 898.028 973.619 902.23 989.288 902.729C1011.45 903.432 1034.28 899.438 1054.01 889.767C1093.84 870.258 1120.79 833.665 1142.63 795.544C1157.59 769.431 1173.47 742.063 1183.21 712.81C1188.23 711.599 1193.31 710.539 1198.42 709.693Z" fill="#D0D175" fill-opacity="0.21"/>
<path d="M982.24 366.634C987.952 361.83 981.382 353.774 975.223 355.17C977.038 353.433 979.715 352.921 982.513 355.044C988.738 359.779 996.006 363.477 1001.81 368.744C1008.33 374.672 1007.57 382.222 1003.57 389.054C1001.54 392.491 997.83 393.128 994.321 391.451C986.518 387.754 978.737 382.629 972.643 376.294C969.888 373.439 965.979 369.871 967.176 365.478C968.142 361.944 969.533 358.963 972.316 356.63C973.238 355.862 974.224 355.384 975.223 355.17C972.358 357.931 971.638 363.718 976.009 367.038C977.329 368.036 978.674 369.019 980.025 369.982C982.705 371.9 985.434 373.754 988.174 375.566C989.863 376.695 991.625 377.801 993.149 379.153C992.844 380.092 991.826 381.442 991.576 381.876C994.649 381.064 997.744 380.257 1000.83 379.458C994.014 376.222 987.576 372.046 982.201 366.657C982.214 366.649 982.227 366.642 982.24 366.634Z" fill="#D0D175" fill-opacity="0.21"/>
<path d="M993.248 378.606C993.602 379.309 993.618 379.518 993.279 379.26C993.243 379.227 993.198 379.18 993.149 379.154C993.221 378.949 993.267 378.759 993.248 378.606Z" fill="#D0D175" fill-opacity="0.21"/>
<path d="M988.174 375.566C985.434 373.754 982.705 371.9 980.025 369.982L980.425 369.388C980.515 368.138 981.114 367.229 982.201 366.657C987.576 372.046 994.014 376.222 1000.83 379.458C997.744 380.257 994.649 381.064 991.576 381.876C991.826 381.442 992.844 380.092 993.149 379.153C993.198 379.179 993.243 379.226 993.279 379.26C993.618 379.518 993.602 379.309 993.248 378.606C993.267 378.759 993.221 378.949 993.149 379.153C991.625 377.801 989.863 376.695 988.174 375.566Z" fill="#D0D175" fill-opacity="0.21"/>
<path d="M982.201 366.657C981.114 367.229 980.515 368.138 980.425 369.388C979.77 367.116 979.128 364.838 978.487 362.559C979.652 364.009 980.885 365.366 982.201 366.657Z" fill="#D0D175" fill-opacity="0.21"/>
<path d="M963.348 341.067C970.296 335.858 977.298 348.166 970.42 353.316C970.394 353.331 970.368 353.346 970.35 353.374L970.337 353.382C964.263 356.871 956.306 347.909 961.918 342.183C961.962 342.139 961.993 342.103 962.037 342.06C962.473 341.736 962.913 341.391 963.348 341.067Z" fill="#D0D175" fill-opacity="0.21"/>
<path d="M978.487 362.559C979.129 364.837 979.77 367.116 980.425 369.388L980.025 369.982C978.674 369.019 977.329 368.036 976.009 367.038C971.638 363.718 972.358 357.931 975.223 355.17C981.382 353.774 987.952 361.83 982.24 366.634C982.227 366.642 982.214 366.649 982.201 366.657C980.885 365.366 979.652 364.009 978.487 362.559Z" fill="#D0D175" fill-opacity="0.21"/>
<path d="M962.037 342.06C974.128 329.744 998.029 315.164 1016.65 320.453C1006.64 319.539 996.679 320.789 988.219 324.276C980.732 327.383 986.493 338.229 993.734 336.97C984.995 340.873 976.652 347.286 971.85 352.2C971.373 352.693 970.868 353.075 970.35 353.374C970.368 353.346 970.394 353.331 970.42 353.316C977.297 348.166 970.296 335.858 963.348 341.067C962.913 341.391 962.472 341.736 962.037 342.06Z" fill="#D0D175" fill-opacity="0.21"/>
<path d="M878.408 291.264C886.557 296.757 895.482 304.851 891.94 315.661C888.892 324.988 877.841 328.12 869 325.947C855.252 322.58 842.402 313.195 829.276 307.164C830.72 302.81 832.08 298.431 833.381 294.069C841.444 297.616 849.292 301.632 857.152 305.695C861.789 308.099 874.46 317.025 879.007 310.861C882.619 305.981 841.883 287.6 837.865 285.909C837.065 285.572 836.388 285.147 835.806 284.648C836.702 280.483 837.289 276.261 837.455 272.028C838.506 271.784 839.728 271.895 841.103 272.48C853.831 277.852 866.841 283.443 878.408 291.264Z" fill="#D0D175" fill-opacity="0.21"/>
<path d="M992.718 500.421C987.708 502.969 982.544 504.68 977.345 505.613C976.886 505.478 976.436 505.357 975.994 505.25C969.003 503.588 969.799 494.49 974.914 492.154C974.927 492.147 974.94 492.139 974.953 492.132C975.735 491.989 976.514 491.811 977.29 491.599C977.906 491.588 978.548 491.653 979.233 491.821C985.251 493.264 990.233 496.176 995.464 498.89C994.551 499.435 993.636 499.945 992.718 500.421Z" fill="#D0D175" fill-opacity="0.21"/>
<path d="M938.453 433.342C932.993 426.369 931.656 420.79 937.66 413.948C939.046 412.368 940.678 411.752 942.264 411.834C937.183 414.26 936.412 423.252 943.39 424.831C945.495 425.303 951.062 433.448 953.425 435.985C954.381 437.012 955.495 437.894 956.544 438.812C957.016 439.211 957.36 439.538 957.614 439.828C956.928 441.603 955.912 443.405 955.36 445.085C958.642 443.734 961.945 442.39 965.24 441.032C960.271 438.802 956.74 434.543 953.252 430.387C951.731 428.562 950.26 426.671 948.783 424.802C948.475 424.417 948.166 424.033 947.85 423.635C951.729 418.709 947.172 412.013 942.264 411.834C943.478 411.243 944.971 411.015 946.649 411.408C954.262 413.128 958.684 422.823 964.294 427.66C967.662 430.56 971.476 433.784 971.742 438.585C971.961 442.377 969.741 445.565 968.602 448.981C967.107 453.546 963.017 454.963 958.722 453.033C950.204 449.205 944.113 440.6 938.453 433.342Z" fill="#D0D175" fill-opacity="0.21"/>
<path d="M958.216 437.847C957.883 439.636 958.262 440.561 958.327 440.704C958.28 440.623 958.086 440.317 957.614 439.828C957.886 439.162 958.091 438.5 958.216 437.847Z" fill="#D0D175" fill-opacity="0.21"/>
<path d="M946.906 422.419C947.231 422.831 947.534 423.237 947.85 423.635C947.765 423.757 947.672 423.865 947.579 423.973C945.112 426.794 946.303 421.643 946.906 422.419Z" fill="#D0D175" fill-opacity="0.21"/>
<path d="M943.39 424.83C936.413 423.252 937.184 414.26 942.264 411.834C947.172 412.013 951.729 418.709 947.85 423.635C947.534 423.237 947.231 422.831 946.906 422.419C946.303 421.643 945.112 426.794 947.579 423.973C947.672 423.865 947.765 423.756 947.85 423.635C948.166 424.033 948.475 424.417 948.783 424.802C950.26 426.671 951.732 428.562 953.252 430.387C956.741 434.543 960.271 438.802 965.24 441.032C961.945 442.39 958.642 443.734 955.36 445.085C955.912 443.405 956.928 441.603 957.614 439.828C958.087 440.317 958.28 440.622 958.327 440.704C958.262 440.561 957.883 439.636 958.216 437.847C958.091 438.499 957.886 439.162 957.614 439.828C957.361 439.538 957.016 439.211 956.544 438.812C955.495 437.894 954.381 437.012 953.425 435.985C951.062 433.448 945.495 425.303 943.39 424.83Z" fill="#D0D175" fill-opacity="0.21"/>
<path d="M974.953 492.132C975.653 491.818 976.445 491.633 977.29 491.599C976.514 491.811 975.735 491.989 974.953 492.132Z" fill="#D0D175" fill-opacity="0.21"/>
<path d="M837.455 272.028C837.289 276.261 836.702 280.483 835.806 284.648C831.358 280.865 832.745 273.06 837.455 272.028Z" fill="#D0D175" fill-opacity="0.21"/>
<path d="M787.145 223.953C790.555 222.346 795.612 223.383 797.401 228.247C797.549 228.652 797.704 229.071 797.838 229.483C797.704 232.573 795.262 235.707 791.92 236.384C785.688 236.516 782.805 227.692 787.145 223.953Z" fill="#D0D175" fill-opacity="0.21"/>
<path d="M797.838 229.483C798.573 231.563 799.213 233.661 799.782 235.783C797.761 235.516 795.682 235.627 793.556 236.165C792.985 236.314 792.434 236.377 791.92 236.384C795.261 235.707 797.704 232.573 797.838 229.483Z" fill="#D0D175" fill-opacity="0.21"/>
<path d="M789.846 222.556C790.119 222.489 790.392 222.423 790.672 222.37C791.823 222.866 792.953 223.357 794.091 223.861C796.859 225.094 797.935 227.286 797.838 229.483C797.704 229.071 797.548 228.652 797.401 228.247C795.612 223.383 790.555 222.346 787.144 223.953C787.833 223.319 788.73 222.838 789.846 222.556Z" fill="#D0D175" fill-opacity="0.21"/>
<path d="M789.846 222.556C788.73 222.838 787.833 223.319 787.144 223.953C784.569 225.149 782.93 227.819 784.264 231.477C784.68 232.616 785.075 233.749 785.431 234.904C744.849 217.45 680.352 206.437 653.705 243.651C648.781 242.665 643.881 241.992 639.003 241.596C650.921 220.779 671.293 207.929 696.757 205.276C727.674 202.07 761.486 209.895 790.672 222.37C790.391 222.423 790.119 222.489 789.846 222.556Z" fill="#D0D175" fill-opacity="0.21"/>
<path d="M920.655 462.563C926.354 468.782 935.896 470.731 943.793 470.4C970.859 469.235 992.791 442.982 1005.75 421.489C1013.36 408.894 1019.83 395.307 1023.43 380.777C1026.14 369.835 1028.35 356.962 1024.24 345.778C1021.37 337.963 1016.43 334.429 1010.61 333.632C1019.51 333.595 1028.83 335.999 1036.74 340.485C1047.1 366.04 1033.86 399.562 1022.32 420.705C1008.83 445.373 989.128 470.374 962.447 480.589C955.875 483.095 948.029 484.413 940.189 484.094C932.517 479.069 925.852 472.193 921.141 464.333C920.845 463.851 920.526 463.418 920.184 463.035L920.655 462.563Z" fill="#D0D175" fill-opacity="0.21"/>
<path d="M921.141 464.333C925.852 472.193 932.518 479.069 940.189 484.094C928 483.637 915.845 479.258 908.719 469.4C906.564 462.823 915.443 457.787 920.184 463.035C920.526 463.418 920.845 463.851 921.141 464.333Z" fill="#D0D175" fill-opacity="0.21"/>
<path d="M918.058 458.963C918.794 460.299 919.663 461.503 920.655 462.563L920.184 463.035C915.443 457.787 906.564 462.823 908.719 469.4C906.925 466.951 905.45 464.156 904.373 461.003C896.697 438.578 909.61 412.45 920.198 394.179C931.196 375.182 944.663 355.521 962.037 342.06C961.993 342.103 961.962 342.139 961.918 342.183C956.307 347.909 964.263 356.871 970.337 353.382C959.411 361.577 950.254 373.796 942.476 385.11C932.931 399.022 923.759 414.207 918.902 430.73C916.475 439.009 913.472 450.542 918.058 458.963Z" fill="#D0D175" fill-opacity="0.21"/>
<path d="M833.381 294.069C832.08 298.431 830.719 302.81 829.276 307.164C828.304 306.708 827.315 306.282 826.333 305.869C822.372 304.217 821.078 300.21 821.719 296.919C822.415 293.396 825.33 290.66 829.592 292.446C830.868 292.979 832.131 293.52 833.381 294.069Z" fill="#D0D175" fill-opacity="0.21"/>
<path d="M787.144 223.953C782.805 227.692 785.687 236.516 791.919 236.384C790.593 236.66 789.105 236.539 787.587 235.855C786.871 235.543 786.147 235.217 785.431 234.904C785.075 233.749 784.68 232.616 784.264 231.477C782.93 227.819 784.569 225.149 787.144 223.953Z" fill="#D0D175" fill-opacity="0.21"/>
<path d="M818.41 295.708C821.307 286.686 824.471 276.929 824.014 267.158C823.427 254.886 812.992 237.501 799.782 235.783C799.213 233.661 798.572 231.563 797.838 229.483C797.935 227.286 796.86 225.094 794.091 223.861C792.953 223.357 791.823 222.866 790.672 222.37C810.522 217.986 832.339 237.872 836.382 257.477C837.391 262.338 837.688 267.194 837.455 272.028C832.745 273.06 831.358 280.865 835.806 284.648C835.213 287.513 834.469 290.356 833.642 293.174C833.55 293.463 833.466 293.766 833.381 294.069C832.131 293.52 830.868 292.979 829.592 292.446C825.33 290.66 822.415 293.395 821.719 296.919L818.41 295.708Z" fill="#D0D175" fill-opacity="0.21"/>
<path d="M909.475 471.069C909.14 470.518 908.885 469.957 908.719 469.4C915.845 479.258 928 483.637 940.189 484.094C950.735 491.016 963.153 494.444 974.914 492.154C969.799 494.49 969.003 503.588 975.994 505.25C976.436 505.357 976.886 505.478 977.344 505.613C951.25 510.317 924.112 495.553 909.475 471.069Z" fill="#D0D175" fill-opacity="0.21"/>
<path d="M803.009 356.172C804.425 356.769 805.842 357.367 807.266 357.978C805.322 361.405 803.291 364.773 801.183 368.096C800.827 368.646 800.483 369.189 800.135 369.753C799.994 369.689 799.861 369.639 799.77 369.601C794.982 367.593 794.087 362.122 795.831 358.647C797.06 356.195 799.6 354.728 803.009 356.172Z" fill="#D0D175" fill-opacity="0.21"/>
<path d="M803.009 356.172C799.6 354.728 797.06 356.195 795.831 358.647L792.409 356.431C798.489 346.188 803.764 335.358 808.166 324.632C812.02 315.203 815.285 305.442 818.41 295.708L821.719 296.919C821.079 300.21 822.373 304.217 826.333 305.869C827.315 306.282 828.304 306.708 829.276 307.164C826.804 314.706 824.116 322.174 821.133 329.431C817.094 339.257 812.476 348.801 807.266 357.978C805.842 357.367 804.426 356.769 803.009 356.172Z" fill="#D0D175" fill-opacity="0.21"/>
<path d="M916.958 594.009C914.19 585.354 927.327 582.125 930.095 590.78C932.135 597.187 935.709 603.017 939.064 608.829C943.621 616.722 931.955 623.458 927.398 615.564C923.398 608.637 919.401 601.653 916.958 594.009Z" fill="#D0D175" fill-opacity="0.21"/>
<path d="M791.498 376.137C792.683 376.633 793.875 377.142 795.055 377.658C792.502 381.528 789.842 385.332 786.915 388.854C780.458 384.616 783.718 372.899 791.498 376.137Z" fill="#D0D175" fill-opacity="0.21"/>
<path d="M786.915 388.854C789.842 385.332 792.502 381.528 795.055 377.658C803.201 381.23 811.128 385.291 819.058 389.387C823.695 391.791 836.366 400.716 840.913 394.552C844.439 389.794 805.757 372.187 800.135 369.753C800.483 369.189 800.827 368.646 801.183 368.096C803.291 364.773 805.322 361.405 807.266 357.978C818.617 362.821 830.029 368.009 840.314 374.955C848.463 380.449 857.387 388.543 853.846 399.352C850.797 408.68 839.747 411.811 830.906 409.639C816.135 406.027 802.391 395.453 788.239 389.56C787.762 389.363 787.309 389.117 786.915 388.854Z" fill="#D0D175" fill-opacity="0.21"/>
<path d="M668.55 247.511C677.03 250.255 673.804 263.676 665.304 260.926C664.156 260.555 663.024 260.21 661.879 259.873C661.719 259.058 661.461 258.282 661.094 257.586C658.116 251.92 663.003 246.884 667.639 247.22C667.938 247.32 668.251 247.411 668.55 247.511Z" fill="#D0D175" fill-opacity="0.21"/>
<path d="M667.639 247.22C663.003 246.884 658.116 251.92 661.094 257.586C661.461 258.282 661.719 259.058 661.878 259.873C656.843 258.425 651.822 257.332 646.8 256.566C648.652 251.722 650.983 247.437 653.705 243.651C658.325 244.559 662.967 245.744 667.639 247.22Z" fill="#D0D175" fill-opacity="0.21"/>
<path d="M731.405 383.231C734.73 387.463 730.554 394.538 724.76 393.963C723.223 393.036 722.002 391.4 721.401 389.551C721.241 385.053 726.558 380.912 731.405 383.231Z" fill="#D0D175" fill-opacity="0.21"/>
<path d="M728.865 381.286C727.873 380.825 726.86 380.357 725.86 379.882C748.347 363.033 764.099 335.357 776.732 310.389C788.328 287.489 793.578 260.541 785.431 234.904C786.147 235.217 786.871 235.543 787.587 235.855C789.105 236.539 790.593 236.66 791.919 236.384C792.434 236.377 792.985 236.314 793.556 236.165C795.682 235.627 797.761 235.516 799.782 235.783C807.244 263.376 801.532 293.385 788.722 317.566C775.319 342.906 760.085 369.594 738.099 388.059C736.436 387.005 734.793 385.776 733.157 384.379C732.583 383.894 731.997 383.507 731.405 383.231C730.809 382.468 729.977 381.805 728.865 381.286Z" fill="#D0D175" fill-opacity="0.21"/>
<path d="M725.86 379.882C726.86 380.357 727.873 380.825 728.865 381.286C729.977 381.805 730.809 382.468 731.405 383.231C726.558 380.912 721.241 385.053 721.401 389.551C720.479 386.727 720.981 383.406 723.893 381.326C724.554 380.854 725.215 380.381 725.86 379.882Z" fill="#D0D175" fill-opacity="0.21"/>
<path d="M725.86 379.882C725.215 380.381 724.554 380.853 723.894 381.326C720.981 383.406 720.479 386.727 721.401 389.551C721.436 390.929 721.996 392.347 723.244 393.641C722.945 393.542 722.65 393.421 722.348 393.287C677.722 372.688 626.317 333.283 627.965 280.669C632.599 280.643 637.258 281.02 641.919 281.849C641.046 328.681 686.578 361.206 725.86 379.882Z" fill="#D0D175" fill-opacity="0.21"/>
<path d="M738.099 388.059C735.791 389.99 733.416 391.833 730.965 393.574C728.745 395.147 726.532 395.027 724.76 393.963C730.554 394.538 734.73 387.463 731.405 383.231C731.997 383.507 732.583 383.894 733.157 384.379C734.793 385.776 736.436 387.005 738.099 388.059Z" fill="#D0D175" fill-opacity="0.21"/>
<path d="M659.695 272.585C666.665 275.347 665.48 285.359 659.938 286.417C658.18 286.306 656.42 285.563 655.204 284.323C652.308 281.404 652.644 277.345 654.928 274.447C655.797 273.347 656.758 272.556 657.682 271.823C658.359 272.067 659.023 272.319 659.695 272.585Z" fill="#D0D175" fill-opacity="0.21"/>
<path d="M639.004 241.596C643.881 241.992 648.781 242.665 653.705 243.651C650.983 247.437 648.652 251.722 646.8 256.566C642.108 255.863 637.446 255.452 632.777 255.298C634.463 250.405 636.553 245.824 639.004 241.596Z" fill="#D0D175" fill-opacity="0.21"/>
<path d="M670.983 279.115C669.146 281.173 666.527 282.322 664.86 284.464C663.671 285.967 661.812 286.55 659.938 286.417C665.48 285.358 666.665 275.347 659.695 272.584C659.023 272.319 658.359 272.067 657.682 271.823C659.495 270.413 661.148 269.205 661.722 266.278C662.132 264.264 662.301 261.952 661.878 259.873C663.024 260.21 664.156 260.555 665.304 260.926C673.804 263.676 677.03 250.255 668.55 247.511C668.251 247.411 667.938 247.32 667.639 247.22C669.589 247.365 671.499 248.458 672.76 250.851C675.842 256.729 676.54 263.893 674.985 270.181C674.213 273.275 673.09 276.718 670.983 279.115Z" fill="#D0D175" fill-opacity="0.21"/>
<path d="M724.76 393.963C724.261 393.907 723.751 393.802 723.244 393.641C721.996 392.347 721.436 390.929 721.401 389.551C722.002 391.4 723.223 393.036 724.76 393.963Z" fill="#D0D175" fill-opacity="0.21"/>
<path d="M723.792 394.141C723.596 393.982 723.406 393.802 723.244 393.641C723.751 393.802 724.261 393.906 724.761 393.963C726.533 395.027 728.745 395.147 730.965 393.574C733.416 391.833 735.791 389.99 738.099 388.059C751.105 396.337 764.522 393.653 774.949 381.3C781.348 373.704 787.179 365.275 792.409 356.431L795.831 358.647C794.087 362.122 794.982 367.593 799.77 369.601C799.862 369.639 799.994 369.689 800.135 369.753C798.473 372.382 796.793 375.04 795.055 377.658C793.875 377.142 792.683 376.633 791.498 376.137C783.718 372.899 780.458 384.616 786.915 388.854C784.178 392.195 781.205 395.309 777.903 398.031C760.854 412.085 740.516 408.53 723.792 394.141Z" fill="#D0D175" fill-opacity="0.21"/>
<path d="M654.928 274.447C652.644 277.345 652.308 281.404 655.203 284.323C656.42 285.562 658.18 286.306 659.938 286.417C658.917 286.625 657.75 286.519 656.448 286C651.618 284.07 646.76 282.72 641.919 281.849C641.979 277.822 642.39 273.684 643.192 269.446C643.299 268.913 643.393 268.387 643.507 267.867C648.242 268.763 652.967 270.063 657.682 271.823C656.757 272.556 655.797 273.347 654.928 274.447Z" fill="#D0D175" fill-opacity="0.21"/>
<path d="M643.507 267.867C643.393 268.387 643.299 268.913 643.192 269.446C642.39 273.684 641.979 277.822 641.919 281.849C637.258 281.02 632.599 280.643 627.965 280.669C628.103 275.999 628.666 271.227 629.697 266.368C634.283 266.497 638.903 266.986 643.507 267.867Z" fill="#D0D175" fill-opacity="0.21"/>
<path d="M639.004 241.596C636.553 245.823 634.463 250.405 632.777 255.298C600.638 254.292 569.39 266.055 541.961 282.726C505.817 304.718 474.646 333.947 445.522 364.626C402.08 410.376 348.255 455.388 284.575 467.493C254.22 473.26 222.295 470.678 193.869 455.569C172.824 444.383 158.231 425.662 149.725 403.625C154.121 402.739 158.475 401.658 162.815 400.405C165.801 407.881 169.598 414.998 174.368 421.553C191.523 445.129 222.314 455.624 249.49 456.447C281.728 457.414 312.721 446.706 340.295 431.422C369.185 415.395 395.383 394.826 418.989 371.652C441.614 349.444 462.722 325.897 486.985 305.447C529.044 270.022 582.206 236.916 639.004 241.596Z" fill="#D0D175" fill-opacity="0.21"/>
<path d="M629.697 266.368C628.666 271.227 628.103 275.999 627.965 280.669C604.898 280.74 582.416 290.562 562.867 302.502C509.577 335.029 468.839 383.519 422.711 424.977C379.518 463.796 323.828 497.255 264.257 500.763C231.983 502.666 199.085 494.658 171.203 476.15C148.157 460.839 131.8 439.034 121.58 413.16C120.742 411.05 119.947 408.895 119.195 406.753C123.87 406.739 128.521 406.504 133.135 406.054C134.195 408.817 135.34 411.549 136.571 414.25C148.847 441.169 167.978 460.955 194.326 473.633C255.35 502.966 321.844 479.42 373.198 445.397C422.493 412.745 460.424 366.039 505.241 327.788C538.308 299.569 583.061 264.948 629.697 266.368Z" fill="#D0D175" fill-opacity="0.21"/>
<path d="M794.354 593.769C799.549 586.723 809.388 596.849 804.285 603.787C794.747 616.752 788.757 632.15 780.301 645.852C775.7 653.299 763.684 646.136 768.303 638.661C777.415 623.91 784.082 607.739 794.354 593.769Z" fill="#D0D175" fill-opacity="0.21"/>
<path d="M685.631 515.615C693.149 511.275 700.221 523.524 692.703 527.864C684.057 532.856 675.425 537.84 666.779 542.831C659.261 547.172 652.189 534.923 659.707 530.583C668.353 525.591 676.986 520.607 685.631 515.615Z" fill="#D0D175" fill-opacity="0.21"/>
<path d="M265.536 173.517C291.4 188.979 299.344 223.662 298.961 251.556C298.526 284.271 287.134 311.626 265.735 334.941C242.268 360.539 212.261 381.366 180.171 394.395C174.432 396.728 168.64 398.729 162.815 400.405C161.083 396.088 159.618 391.635 158.379 387.124C175.827 382.022 192.36 373.929 207.922 364.182C235.46 346.922 265.109 323.199 278.019 291.738C288.615 265.877 289.392 228.428 274.957 202.737C268.164 190.672 257.485 181.485 243.53 181.232C228.964 180.967 213.954 183.318 200.678 189.06C147.813 211.906 123.167 273.061 121.532 329.769C121.211 340.588 121.585 351.623 122.822 362.596C118.251 362.912 113.649 362.992 109.019 362.816C104.019 321.317 110.919 278.01 128.52 242.37C140.789 217.521 159.06 195.105 183.263 181.857C195.613 175.108 209.195 170.315 223.292 168.509C237.295 166.721 252.534 165.726 265.536 173.517Z" fill="#D0D175" fill-opacity="0.21"/>
<path d="M236.114 193.951C266.854 197.054 271.661 230.136 268.348 255.439C264.048 288.553 248.011 319.896 222.169 339.825C207.184 351.379 189.899 359.308 172.126 365.614C166.456 367.617 160.765 369.524 155.042 371.195C154.314 366.552 153.802 361.894 153.454 357.25C166.228 353.722 178.694 348.702 190.675 342.692C222.612 326.703 245.345 299.714 253.062 263.448C255.817 250.498 257.78 235.428 253.303 222.316C248.529 208.36 236.032 205.903 223.403 209.202C199.187 215.544 182.211 236.251 171.507 258.273C158.902 284.186 152.627 313.94 152.888 343.368C152.919 347.941 153.111 352.585 153.454 357.25C148.958 358.503 144.419 359.562 139.857 360.4C135.165 314.586 146.512 265.39 171.963 230.445C186.205 210.899 210.117 191.341 236.114 193.951Z" fill="#D0D175" fill-opacity="0.21"/>
<path d="M153.454 357.25C153.802 361.894 154.314 366.552 155.041 371.195C150.67 372.485 146.273 373.608 141.832 374.539C140.996 369.887 140.335 365.15 139.857 360.4C144.419 359.562 148.958 358.503 153.454 357.25Z" fill="#D0D175" fill-opacity="0.21"/>
<path d="M158.379 387.124C159.618 391.635 161.083 396.088 162.815 400.405C158.475 401.658 154.121 402.739 149.725 403.625C148.702 400.986 147.77 398.294 146.924 395.571C146.386 393.831 145.874 392.076 145.395 390.319C149.779 389.44 154.107 388.375 158.379 387.124Z" fill="#D0D175" fill-opacity="0.21"/>
<path d="M122.822 362.596C128.546 362.213 134.221 361.476 139.856 360.4C140.335 365.15 140.995 369.887 141.832 374.539C136.299 375.701 130.707 376.553 124.993 376.984C124.086 372.209 123.373 367.413 122.822 362.596Z" fill="#D0D175" fill-opacity="0.21"/>
<path d="M145.395 390.319C145.874 392.076 146.386 393.831 146.924 395.571C147.77 398.294 148.702 400.986 149.725 403.625C144.22 404.717 138.692 405.531 133.135 406.054C131.437 401.645 129.956 397.165 128.66 392.614C134.327 392.192 139.903 391.404 145.395 390.319Z" fill="#D0D175" fill-opacity="0.21"/>
<path d="M122.822 362.596C123.373 367.413 124.086 372.209 124.993 376.984C122.689 377.153 120.345 377.254 117.995 377.286C115.747 377.314 113.515 377.278 111.25 377.188C110.338 372.434 109.591 367.639 109.019 362.816C113.649 362.992 118.251 362.912 122.822 362.596Z" fill="#D0D175" fill-opacity="0.21"/>
<path d="M128.66 392.614C129.956 397.165 131.437 401.645 133.135 406.054C128.521 406.504 123.87 406.739 119.195 406.753C117.581 402.223 116.144 397.608 114.873 392.953C115.736 392.981 116.604 392.987 117.473 392.994C121.244 393.031 124.968 392.895 128.66 392.614Z" fill="#D0D175" fill-opacity="0.21"/>
<path d="M109.019 362.816C109.591 367.639 110.338 372.434 111.25 377.188C78.1511 375.956 45.0891 363.234 19.0544 341.01C3.40066 327.637 -10.1597 311.005 -18.6546 292.01C-28.4516 270.102 -33.5055 246.98 -38.2821 223.68C-40.0938 214.854 -26.9782 211.528 -25.1452 220.45C-18.1182 254.773 -10.5997 290.336 13.8909 317.189C32.1839 337.259 55.6877 352.015 81.4172 358.773C90.6651 361.2 99.8845 362.501 109.019 362.816Z" fill="#D0D175" fill-opacity="0.21"/>
<path d="M114.873 392.953C116.144 397.608 117.581 402.223 119.195 406.753C108.505 406.828 97.6754 405.822 86.6981 403.721C50.6002 396.816 14.0371 379.946 -12.1573 352.207C-44.3238 318.136 -53.9012 273.11 -62.9501 228.849C-64.7489 220.016 -51.6462 216.697 -49.8133 225.619C-48.8433 230.412 -47.8733 235.206 -46.8618 240.011C-37.5555 284.269 -24.648 328.298 13.1077 356.783C42.5289 378.975 78.9817 392.062 114.873 392.953Z" fill="#D0D175" fill-opacity="0.21"/>
<path d="M644.254 318.282C657.408 317.148 665.932 309.522 673.525 299.205C676.933 294.57 670.371 287.815 666.902 292.522C661.053 300.472 654.524 308.052 644.09 308.959C638.348 309.461 638.457 318.78 644.254 318.282Z" fill="#D0D175" fill-opacity="0.21"/>
<path d="M653.563 335.245C666.772 332.918 675.921 322.991 684.134 313.059C687.82 308.608 681.241 301.882 677.51 306.376C670.337 315.055 662.686 324.135 651.075 326.175C645.333 327.186 647.868 336.247 653.563 335.245Z" fill="#D0D175" fill-opacity="0.21"/>
<path d="M669.686 348.801C681.518 343.821 692.337 336.068 697.598 323.777C699.89 318.407 691.928 313.567 689.6 318.994C684.905 329.961 675.473 336.224 664.958 340.643C659.632 342.883 664.42 351.025 669.686 348.801Z" fill="#D0D175" fill-opacity="0.21"/>
<path d="M685.203 360.711C697.965 354.468 707.641 345.034 714.295 332.282C717.014 327.083 709.022 322.28 706.298 327.5C700.319 338.937 691.933 346.953 680.488 352.545C675.276 355.101 680.029 363.244 685.203 360.711Z" fill="#D0D175" fill-opacity="0.21"/>
<path d="M698.266 375.852C714.049 369.244 724.898 353.399 733.012 338.716C735.837 333.582 727.853 328.793 725.014 333.934C717.606 347.356 707.97 361.648 693.538 367.694C688.212 369.934 692.992 378.062 698.266 375.852Z" fill="#D0D175" fill-opacity="0.21"/>
<path d="M720.575 383.659C733.489 372.411 745.786 358.597 754.15 343.388C756.975 338.254 748.983 333.451 746.152 338.606C738.162 353.145 726.296 366.238 713.959 376.99C709.583 380.787 716.212 387.448 720.575 383.659Z" fill="#D0D175" fill-opacity="0.21"/>
<path d="M641.854 302.991C649.856 299.877 656.355 296.705 662.33 290.262C666.27 286.009 659.685 279.304 655.707 283.579C650.88 288.779 645.842 291.398 639.366 293.921C634.034 296.001 636.463 305.087 641.854 302.991Z" fill="#D0D175" fill-opacity="0.21"/>
<path d="M1003.73 509.796C1019.37 499.461 1031.96 485.315 1041.58 469.053C1044.56 464.011 1036.56 459.229 1033.58 464.271C1024.8 479.12 1013.29 492.193 999.003 501.637C994.199 504.81 998.895 513.005 1003.73 509.796Z" fill="#D0D175" fill-opacity="0.21"/>
<path d="M1018.7 514.764C1029.82 507.146 1039.61 497.826 1045.94 485.589C1048.64 480.384 1040.65 475.58 1037.94 480.806C1032.35 491.601 1023.8 499.861 1013.97 506.606C1009.23 509.867 1013.92 518.048 1018.7 514.764Z" fill="#D0D175" fill-opacity="0.21"/>
<path d="M1046.68 512.944C1049.42 509.422 1052.55 506.253 1054.74 502.301C1057.57 497.167 1049.58 492.377 1046.75 497.519C1044.94 500.794 1042.33 503.349 1040.08 506.267C1038.57 508.207 1038.32 510.891 1040.26 512.861C1041.91 514.535 1045.16 514.892 1046.68 512.944Z" fill="#D0D175" fill-opacity="0.21"/>
<path d="M598.187 177.589C600.285 170.208 606.745 165.262 612.941 161.594C617.925 158.644 613.211 150.478 608.226 153.429C599.882 158.373 592.151 165.159 589.359 174.992C587.731 180.704 596.585 183.286 598.187 177.589Z" fill="#D0D175" fill-opacity="0.21"/>
<path d="M623.004 197.212C626.257 190.453 630.502 184.754 636.883 180.87C641.816 177.859 637.114 169.685 632.169 172.704C624.476 177.4 618.973 184.242 615.019 192.422C612.47 197.705 620.436 202.524 623.004 197.212Z" fill="#D0D175" fill-opacity="0.21"/>
<path d="M1115.28 380.909C1117.82 386.795 1117.12 393.256 1114.24 398.588C1111.44 403.741 1119.43 408.544 1122.24 403.37C1126.79 394.971 1126.96 385.453 1123.07 376.411C1120.66 370.854 1112.91 375.399 1115.28 380.909Z" fill="#D0D175" fill-opacity="0.21"/>
<path d="M1140.04 372.574C1142.98 378.152 1142.05 385.66 1140.26 391.281C1138.46 396.931 1147.3 399.486 1149.09 393.879C1151.64 385.853 1151.93 375.905 1147.82 368.084C1144.98 362.698 1137.22 367.215 1140.04 372.574Z" fill="#D0D175" fill-opacity="0.21"/>
</svg>
