<svg width="399" height="632" viewBox="0 0 399 632" fill="none" xmlns="http://www.w3.org/2000/svg">
<path d="M359.411 356.913L273.841 342.533C255.257 375.938 220.795 381.026 202.809 375.778C177.247 370.547 164.787 346.585 161.752 335.258L74.6167 351.5C75.2155 300.926 92.6159 280.194 112.704 256.261L112.966 255.948C112.847 112.964 168.766 43.2031 216.297 15.0699C314.344 73.3639 327.788 196.906 322.254 251.391C358.475 296.404 362.117 340.494 359.411 356.913Z" stroke="#D0D175" stroke-opacity="0.47" stroke-width="20"/>
<circle cx="220.176" cy="143.145" r="35.4499" transform="rotate(-15 220.176 143.145)" stroke="#D0D175" stroke-opacity="0.47" stroke-width="20"/>
<circle cx="273" cy="675" r="116" stroke="#D0D175" stroke-opacity="0.21" stroke-width="20"/>
<circle cx="122.5" cy="526.5" r="56.5" stroke="#D0D175" stroke-opacity="0.21" stroke-width="20"/>
<circle cx="335.5" cy="490.5" r="22.5" stroke="#D0D175" stroke-opacity="0.21" stroke-width="20"/>
<path d="M336 108C345.081 130.055 354.223 150.894 360 174" stroke="#D0D175" stroke-opacity="0.21" stroke-width="20" stroke-linecap="round"/>
<path d="M113.644 36.6419C100.885 42.8628 80.5396 67.9582 82.0713 83.2803" stroke="#D0D175" stroke-opacity="0.21" stroke-width="20" stroke-linecap="round"/>
<path d="M287 367C288.452 374.442 293 383.51 293 391" stroke="#D0D175" stroke-opacity="0.21" stroke-width="20" stroke-linecap="round"/>
<path d="M183 407C186.24 423.603 189 440.02 189 457" stroke="#D0D175" stroke-opacity="0.21" stroke-width="20" stroke-linecap="round"/>
<path d="M249.29 406C255.823 421.825 262.056 440.125 265.754 456.764" stroke="#D0D175" stroke-opacity="0.21" stroke-width="20" stroke-linecap="round"/>
</svg>
